<?xml version="1.0" encoding="UTF-8" standalone="no"?>
<!-- Created with Inkscape (http://www.inkscape.org/) -->

<svg
   width="243.24034mm"
   height="100mm"
   viewBox="0 0 243.24034 100"
   version="1.1"
   id="svg5"
   inkscape:version="1.1.2 (08b2f3d93c, 2022-04-05)"
   sodipodi:docname="signature.svg"
   inkscape:export-filename="/home/simbleau/git/resume/coverletter/static/graphics/signature.png"
   inkscape:export-xdpi="76.229134"
   inkscape:export-ydpi="76.229134"
   xmlns:inkscape="http://www.inkscape.org/namespaces/inkscape"
   xmlns:sodipodi="http://sodipodi.sourceforge.net/DTD/sodipodi-0.dtd"
   xmlns="http://www.w3.org/2000/svg"
   xmlns:svg="http://www.w3.org/2000/svg">
  <sodipodi:namedview
     id="namedview7"
     pagecolor="#ffffff"
     bordercolor="#666666"
     borderopacity="1.0"
     inkscape:pageshadow="2"
     inkscape:pageopacity="0.0"
     inkscape:pagecheckerboard="0"
     inkscape:document-units="mm"
     showgrid="false"
     inkscape:zoom="0.47370598"
     inkscape:cx="113.99476"
     inkscape:cy="91.829112"
     inkscape:window-width="1920"
     inkscape:window-height="941"
     inkscape:window-x="980"
     inkscape:window-y="34"
     inkscape:window-maximized="1"
     inkscape:current-layer="layer1"
     fit-margin-top="0"
     fit-margin-left="0"
     fit-margin-right="0"
     fit-margin-bottom="0" />
  <defs
     id="defs2" />
  <g
     inkscape:label="Layer 1"
     inkscape:groupmode="layer"
     id="layer1"
     transform="translate(-13.785015,-149.26375)">
    <path
       id="path1316"
       style="fill:#000000;stroke-width:4.24805;stroke-linecap:square"
       d="m 93.433416,149.26375 c -1.872902,0.79949 -3.746895,1.59992 -5.619808,2.3994 -14.255532,6.36625 -28.441266,12.95392 -42.170511,20.39815 -3.634176,2.18286 -6.367193,3.65115 -9.659046,6.24984 -2.603905,2.05563 -5.683173,4.82042 -6.155445,8.35289 -0.106878,0.79952 0.142122,1.60904 0.212938,2.41256 0.333684,0.61699 0.576555,1.29217 1.001028,1.85058 0.735532,0.96766 2.05862,1.77404 3.025037,2.45428 1.752998,1.23393 3.515099,2.46049 5.161004,3.83727 1.03278,0.93325 1.986308,1.67621 2.779172,2.83405 0.928468,1.35594 1.33452,2.9728 0.834189,4.57708 -0.178375,0.57191 -0.51581,1.08108 -0.772723,1.62228 -1.249698,1.54718 -1.247898,1.75504 -2.952595,2.95698 -0.676267,0.4768 -2.948886,1.23668 -2.122795,1.28422 0.0081,4.6e-4 0.01605,-3.6e-4 0.02414,0 -1.718725,0.66913 -3.321136,1.26041 -2.45647,0.81443 -2.705784,0.75186 -5.393053,1.48455 -8.207994,1.69692 -1.008732,0.0761 -2.487554,0.12533 -3.499208,-0.27441 -0.344092,-0.13593 -0.607774,-0.4246 -0.911024,-0.63661 -0.15446,-0.36661 -0.379462,-0.7107 -0.463195,-1.09982 -0.56649,-2.63286 1.627609,-5.47487 2.783561,-7.63284 1.622099,-2.57465 3.310866,-5.10548 5.27296,-7.43527 -0.14626,-4.46134 -8.558418,-4.18465 -8.41215,0.2766 -1.557809,2.45389 -3.020812,4.97963 -4.511213,7.47917 -1.298508,2.32368 -2.80058,4.73623 -2.827467,7.49674 -0.01912,1.94437 0.310659,2.28808 1.00103,4.06339 0.517785,0.58882 0.930068,1.28753 1.552032,1.76497 3.892373,2.98803 9.946006,1.34224 14.240507,0.36001 4.83791,-1.21922 9.217939,-3.23118 13.660964,-5.56932 1.329934,-0.69985 3.151579,-2.32418 4.074361,-3.51457 0.521166,-0.67234 0.883786,-1.45535 1.325923,-2.18207 0.260278,-0.775 0.627607,-1.52136 0.779308,-2.32476 0.471343,-2.4961 -0.188594,-4.94736 -1.541055,-7.05329 -1.044926,-1.62713 -1.992599,-2.38463 -3.367495,-3.70556 -1.693551,-1.48953 -3.505078,-2.83756 -5.31028,-4.18632 -0.696845,-0.52064 -2.095951,-1.45435 -2.6738,-2.21938 -0.206242,-0.27315 -0.270394,-0.62977 -0.406119,-0.94395 0.0845,-0.32881 0.106406,-0.6793 0.252453,-0.98567 1.120333,-2.35056 3.470653,-4.30023 5.446385,-5.85031 3.32858,-2.61139 5.086903,-3.56584 8.787535,-5.88982 8.17678,-4.74604 16.717515,-8.83664 25.317676,-12.74994 2.644806,-1.20347 5.340774,-2.28972 8.008227,-3.44213 1.832462,-0.75526 3.664418,-1.51022 5.496881,-2.26548 2.768283,1.59153 5.771385,-3.62879 3.003079,-5.22029 z m 78.837574,4.48707 c -4.88625,0.0695 -10.61011,6.63521 -13.24606,9.32098 -2.86466,3.08527 -5.65602,6.25565 -8.29801,9.54271 -2.81281,0.16951 -5.5995,0.34101 -8.55264,0.52027 -13.04284,0.85087 -26.07827,1.82974 -39.11913,2.70891 -1.45021,-1.09136 -3.507158,1.64171 -2.05694,2.73307 13.38188,-1.47219 26.76332,-2.95162 40.17504,-4.13143 3.03611,-0.25611 5.87723,-0.50238 8.68437,-0.7376 -1.15535,1.46842 -2.28276,2.95823 -3.3675,4.47829 -2.4764,3.47017 -3.34845,5.0534 -5.56932,8.69533 -2.98218,5.28808 -5.78696,10.675 -8.26288,16.21841 -1.14566,-0.0305 -2.29115,-0.0127 -3.43115,0.11415 -2.17161,0.24172 -4.21539,0.98883 -6.29374,1.61351 -1.85716,0.61099 -3.71127,1.23566 -5.59786,1.75179 -0.13186,0.034 -1.79843,0.43566 -2.12279,0.55979 -0.14533,0.0556 -0.26763,0.15808 -0.40173,0.23709 -0.10711,-0.0451 -0.23567,-0.0567 -0.32051,-0.1361 -0.13365,-0.1249 -0.61077,-0.93246 -0.68272,-1.04933 -0.49615,-0.80589 -0.98764,-1.61463 -1.69473,-2.2611 -0.79054,-0.52348 -1.03824,-0.80702 -2.00425,-0.9659 -1.70952,-0.28122 -3.39501,0.59694 -4.95245,1.13274 -2.85273,1.21987 -5.701725,2.4622 -8.636063,3.47507 -0.462634,0.0879 -0.921907,0.20777 -1.389587,0.26342 -2.002597,0.23704 -4.10554,-0.0508 -5.940318,-0.88029 -0.936057,-0.60019 -1.431061,-1.05692 -1.751795,-1.37202 -0.191782,-0.93033 -0.367625,-0.95222 -1.21616,-0.25026 -0.7502,0.45109 -2.345045,1.57146 -6.647177,3.49043 -0.0011,-0.004 -0.0118,-0.0361 -0.0154,-0.0483 -0.4665,0.21258 -0.934878,0.42127 -1.407144,0.62125 0.391858,-0.18235 0.876668,-0.40146 1.400557,-0.64101 -0.02821,-0.0964 -0.08452,-0.2848 -0.131705,-0.31172 -0.1661,-0.0943 -1.51627,1.08078 -1.740826,1.09322 -0.233155,0.12238 -0.251273,0.13155 -0.414899,0.21733 -0.570355,0.22264 -1.145047,0.43353 -1.732048,0.61028 -2.933067,0.80373 -5.97861,1.35037 -9.031205,1.22056 -0.127329,-0.006 -0.840897,-0.0636 -1.442271,-0.0813 1.129956,-1.49458 2.449394,-2.19397 3.534328,-3.89654 0.241933,-1.54467 -0.314619,-3.66332 -2.153523,-3.90313 -4.431415,0.99655 -8.223401,3.61688 -11.459141,6.64717 -3.3779,3.31412 -6.470768,6.88401 -9.38903,10.6096 -3.512861,4.4951 -6.826962,9.15991 -9.263903,14.34368 -1.688712,3.38573 -3.377348,6.7801 -5.161004,10.11345 -0.646684,0.63564 -0.576336,1.84851 0.298552,2.56843 l 1.310558,0.7376 c 3.913365,1.18712 4.872056,0.41648 6.230084,-2.29182 0.135215,-0.26975 0.122692,-0.59187 0.195376,-0.88468 0.06096,-0.24554 0.135763,-0.48533 0.204157,-0.72883 0.08411,-0.34196 0.139709,-0.69351 0.252453,-1.02736 0.119327,-0.35344 1.114069,-2.5858 1.176647,-2.72649 0.947666,-2.13065 1.905123,-4.24995 2.917471,-6.35082 2.336466,-5.01894 5.680714,-9.43601 9.173897,-13.69171 1.358019,-1.69841 2.779385,-3.33482 4.267542,-4.90854 0.990388,0.98971 2.480453,1.28672 4.043627,1.50593 3.346533,0.30544 6.672633,-0.14636 9.953207,-0.77053 2.118555,-0.51189 4.246653,-1.12294 6.232277,-2.03937 4.172011,-1.92546 5.157478,-2.24633 5.91178,-2.62989 2.079914,1.12243 4.41745,1.68051 6.783277,1.73862 0.567163,0.0127 1.134201,-0.0282 1.701319,-0.0439 3.282496,-0.38488 6.352159,-1.71965 9.39342,-2.94381 1.51816,-0.63428 3.06032,-1.21768 4.6539,-1.63326 0.56576,0.21495 1.00697,1.41325 1.40715,1.89668 0.24269,0.29312 0.5224,0.55524 0.7837,0.832 0.43847,0.25701 0.83748,0.59635 1.31494,0.77053 2.705,0.98686 6.93258,-0.68512 9.53831,-1.50154 2.68442,-0.83317 5.35659,-1.79979 8.16629,-2.1206 1.25614,-0.14353 2.12787,-0.167 3.09748,-0.16465 -0.54411,1.39611 -1.03305,2.72494 -1.80448,4.78562 -1.29132,3.72469 -2.60436,7.45896 -3.38946,11.33182 -0.3561,1.75682 -0.76621,4.32417 -0.61027,6.15984 0.0723,0.85041 0.36889,1.66699 0.5532,2.50037 0.47572,0.6582 0.81039,1.44713 1.4269,1.97572 2.03393,1.7439 5.05031,1.66734 7.44186,0.89785 7.23226,-2.32738 5.74135,-1.61777 10.03443,-4.45194 4.72597,-3.35031 9.14467,-7.1069 13.59072,-10.81374 2.29725,-1.85743 1.16974,-0.95327 3.37847,-2.71332 0.6372,-3.43943 -5.84752,-4.6425 -6.48473,-1.20299 -2.10749,1.80627 -1.03555,0.87936 -3.21823,2.78576 -4.47233,5.2474 -5.75511,5.6831 -9.6728,9.03313 -1.33211,1.03986 -2.54069,2.5343 -5.79264,3.14604 -0.63586,0.18479 -2.54645,0.53346 -3.3192,0.30075 -0.42234,-0.12702 -0.73357,-0.4918 -1.09981,-0.7376 -0.20472,-0.58465 -0.52291,-1.14134 -0.61467,-1.754 -0.24749,-1.65222 0.0951,-4.03027 0.36441,-5.60663 0.64289,-3.76189 1.80439,-7.40001 3.01187,-11.01131 0.68133,-1.9028 1.11053,-3.14028 1.57617,-4.39267 4.15954,0.285 8.31454,0.62884 12.47993,0.84077 4.84441,0.26126 9.69299,0.091 14.53686,-0.0746 2.22062,-0.0778 13.43151,-0.19782 15.64985,-0.3227 0.16503,0.12603 0.33368,0.22453 0.50491,0.30732 -0.19568,0.63912 -0.38811,1.27793 -0.59271,1.91207 -2.3071,4.27006 -12.42727,16.61254 -10.76667,19.0835 7.95954,6.78375 23.32733,1.54587 31.90684,-0.82553 2.16137,-0.61189 0.50217,0.30107 2.64961,-0.35801 6.89992,-2.3241 13.74962,-4.8324 20.40474,-7.79529 5.09548,-2.26849 10.7957,-4.82826 15.66521,-7.74479 1.8496,-1.10777 3.59596,-2.37942 5.39371,-3.56947 3.53418,-2.98526 5.48212,-4.26115 8.22335,-7.96652 1.72022,-2.32525 3.48254,-5.8651 4.3817,-8.63606 0.45017,-1.38723 0.83342,-2.81291 0.98786,-4.26315 0.14838,-1.39382 -0.0569,-2.80248 -0.0856,-4.20387 -0.55366,-1.3547 -0.84019,-2.85447 -1.66179,-4.06559 -3.65545,-5.38847 -10.60663,-7.20017 -16.58941,-8.22995 -7.098,-1.22178 -13.84341,-1.29217 -21.03696,-1.63325 -17.15828,-0.44468 -34.32824,-0.52306 -51.48271,0.12732 -3.17623,0.12051 -6.2127,0.27323 -9.22658,0.43685 2.45596,-2.89278 5.0561,-5.66353 7.78431,-8.2936 1.48403,-1.63253 2.5987,-2.77236 4.11168,-5.10174 0.0544,-0.23874 0.20854,-0.49251 0.40612,-0.65856 0.0905,-0.0764 0.2355,0.0135 0.35343,0.0219 0.75113,1.45291 0.6626,3.32932 0.65857,4.76147 -0.0583,0.66473 -0.0959,1.48116 -0.47197,2.05693 0.16902,3.92685 7.57355,3.60841 7.40453,-0.31831 0.13101,-0.96222 0.16355,-1.92548 0.12952,-2.89551 -0.11843,-1.61108 -0.16044,-3.28525 -0.62345,-4.84709 -0.10442,-0.35259 -0.256,-0.68755 -0.38416,-1.03176 -0.26185,-0.36236 -0.43883,-0.80508 -0.7859,-1.08665 -0.99026,-0.80343 -2.07307,-1.13341 -3.20066,-1.11737 z M 79.552928,208.7547 c 0.0022,0.006 0.0056,0.0147 0.0067,0.0198 0.132852,-0.0606 0.266974,-0.11905 0.399534,-0.18002 0.452665,-0.20819 1.804982,-0.84187 1.350069,-0.63881 -0.695766,0.31073 -1.197839,0.54377 -1.75619,0.79907 z M 184.53359,172.08545 c 10.58219,-0.0401 21.16517,0.34394 31.7146,1.17226 7.5531,0.89294 12.17531,1.14578 19.38834,3.02504 4.85136,1.26396 10.93532,3.34977 13.91121,7.79748 0.64524,0.96439 0.88514,2.1458 1.32812,3.21822 0.0336,1.19115 0.22458,2.38619 0.10318,3.57164 -0.39146,3.82316 -2.55833,8.64057 -4.7988,11.7094 -0.99774,1.36661 -2.13663,2.63572 -3.34114,3.82411 -1.33035,1.31248 -2.83031,2.43903 -4.2456,3.65945 -1.7032,1.14809 -3.35337,2.37706 -5.10831,3.44434 -9.03568,5.49523 -19.04181,9.15324 -29.07153,12.35699 -2.06589,0.58992 -19.83655,3.46467 -21.91606,4.00455 -22.37559,1.67519 4.63912,-18.51822 5.14685,-21.79695 -2.20984,-5.09748 -7.13205,-4.2099 -11.45694,-3.97777 -4.78346,0.226 -18.56623,0.38974 -23.35514,0.24147 -4.98269,-0.14049 -9.95587,-0.43122 -14.91883,-0.89565 2.43673,-5.59073 5.245,-11.01602 8.32214,-16.27989 0.90456,-1.44285 1.77561,-2.90753 2.71332,-4.329 2.19772,-3.33152 4.58542,-6.54128 7.13671,-9.61514 3.03495,-0.22679 6.10477,-0.43703 9.40879,-0.60589 6.34043,-0.32405 12.68999,-0.5006 19.0393,-0.52466 z m 16.23816,12.01234 c -1.58117,0.0225 -3.05186,0.76885 -3.37188,2.44111 -1.83957,0.8665 -3.6883,1.71703 -5.49249,2.65623 -2.54515,1.33342 -5.06519,2.71082 -7.60429,4.05461 -0.67585,4.43016 7.67702,5.70558 8.35287,1.27543 2.28817,-1.44149 4.6752,-2.71031 7.07965,-3.94704 1.81316,-0.84238 3.62373,-1.68896 5.42662,-2.55306 0.46774,-2.44404 -2.07951,-3.96007 -4.39048,-3.92728 z M 40.25818,209.18058 c -0.0057,0.0126 -0.371381,0.16448 -0.838581,0.35562 0.195955,-0.10487 0.392511,-0.20332 0.594909,-0.2766 0.17114,-0.0619 0.2466,-0.0855 0.243672,-0.079 z"
       sodipodi:nodetypes="sccsscsscsscssccsscsccccccscsscsscssccscsccscccccccccsccsccsccscsccccccccccccccccccccccccsscsscccccscccccscscsccsscscccccccsccscccccccccscsscssscsscscccccccccscscsccscscccsscssscscccccccscsccsccccccsscss" />
  </g>
</svg>
