<?xml version="1.0" encoding="UTF-8" standalone="no"?>
<!-- Created with Inkscape (http://www.inkscape.org/) -->

<svg
   width="228.34639mm"
   height="125.69754mm"
   viewBox="0 0 228.34639 125.69754"
   version="1.1"
   id="svg5"
   inkscape:version="1.2.1 (ef4d3fba62, 2022-07-19, custom)"
   sodipodi:docname="signature.svg"
   inkscape:export-filename="/home/simbleau/git/resume/coverletter/static/graphics/signature.png"
   inkscape:export-xdpi="76.229134"
   inkscape:export-ydpi="76.229134"
   xmlns:inkscape="http://www.inkscape.org/namespaces/inkscape"
   xmlns:sodipodi="http://sodipodi.sourceforge.net/DTD/sodipodi-0.dtd"
   xmlns="http://www.w3.org/2000/svg"
   xmlns:svg="http://www.w3.org/2000/svg">
  <sodipodi:namedview
     id="namedview7"
     pagecolor="#ffffff"
     bordercolor="#666666"
     borderopacity="1.0"
     inkscape:pageshadow="2"
     inkscape:pageopacity="0.0"
     inkscape:pagecheckerboard="0"
     inkscape:document-units="mm"
     showgrid="false"
     inkscape:zoom="0.33496072"
     inkscape:cx="116.43156"
     inkscape:cy="238.83397"
     inkscape:window-width="1280"
     inkscape:window-height="683"
     inkscape:window-x="1280"
     inkscape:window-y="720"
     inkscape:window-maximized="1"
     inkscape:current-layer="layer1"
     fit-margin-top="0"
     fit-margin-left="0"
     fit-margin-right="0"
     fit-margin-bottom="0"
     inkscape:showpageshadow="2"
     inkscape:deskcolor="#d1d1d1"
     showguides="true" />
  <defs
     id="defs2" />
  <g
     inkscape:label="Layer 1"
     inkscape:groupmode="layer"
     id="layer1"
     transform="translate(-16.022694,-113.03534)">
    <path
       style="fill:#000000;stroke-width:0.264583"
       id="path223"
       d="m 88.320885,202.82694 c -1.970908,0.35363 -4.67704,0.0488 -6.114976,-1.55034 -0.194215,-0.21599 0.970423,0.0577 0.846897,-0.2052 -0.45801,-0.97476 -1.398609,-1.63818 -2.097913,-2.45727 -2.548157,-3.88048 -4.116872,-7.31845 -1.634885,-11.60114 0.0016,-0.002 0.897086,-1.1473 0.91685,-1.35441 0.01953,-0.20465 -0.04292,-0.47418 -0.221821,-0.57545 -4.573947,-2.58921 -4.607192,-2.17963 -9.051925,-2.24838 -2.217168,-0.0237 -4.434459,-0.0226 -6.651712,-0.0216 -0.90393,2.7e-4 -1.982303,-0.18801 -2.815574,0.21852 -0.04931,0.12988 -0.149117,0.25071 -0.147934,0.38962 0.0032,0.37824 0.29428,0.54396 0.577342,0.70506 2.331874,1.32718 3.888901,2.15587 6.14934,3.09312 1.481685,0.6831 0.758674,0.33188 2.170247,1.05114 0,0 -3.014138,-2.41142 -3.014138,-2.41142 v 0 c -1.417415,-0.69803 -0.690618,-0.3553 -2.181622,-1.02558 -0.380712,-0.15886 -0.76168,-0.31711 -1.142137,-0.47658 -3.63084,-1.52193 4.210145,2.25878 0.878956,0.85992 0.743881,-0.28868 1.82068,-0.17549 2.579087,-0.18827 2.196118,-0.037 4.392938,-0.0454 6.589146,-0.01 0.829971,0.0261 1.660742,0.0335 2.489914,0.0784 0.693672,0.0375 2.106801,0.86256 2.077233,0.16851 -0.03882,-0.91117 -1.472445,-1.08288 -2.14254,-1.70151 -0.116493,-0.10755 0.412464,-0.0106 0.453798,0.14247 0.141195,0.52285 -1.091983,0.92951 -0.842942,1.38897 -2.458304,4.51006 -1.007491,8.00749 1.640023,12.10728 3.153431,3.82059 1.841071,2.65761 7.453365,6.39526 1.978742,1.31779 4.156755,1.96119 6.502255,1.46196 0,0 -3.264334,-2.23298 -3.264334,-2.23298 z" />
    <path
       style="fill:#000000;stroke-width:0.264583"
       id="path237"
       d="m 84.591802,160.35122 c -0.964054,-5.21359 -2.513981,-10.99306 -5.743956,-15.28974 -1.201748,-1.59862 -2.742133,-2.91202 -4.113199,-4.36803 -5.026009,-3.3342 -8.098729,-5.91204 -14.550556,-7.183 -4.97503,-0.98004 -11.927798,1.01496 -16.063331,3.48219 -8.445577,5.03858 -10.598582,9.52367 -16.58537,17.3272 -2.107839,4.1484 -4.562855,8.13797 -6.323518,12.4452 -4.851879,11.86949 -7.548372,25.57605 -2.426164,37.91389 4.044383,9.74169 8.226813,11.62049 16.028936,18.17556 4.517092,2.04905 8.831001,4.62343 13.551274,6.14716 3.827976,1.23569 7.883144,1.70435 11.889404,2.06523 9.0156,0.81211 18.973784,-0.21246 27.344213,-3.86868 1.856428,-0.81089 3.496487,-2.04696 5.24473,-3.07045 3.026023,-3.04459 3.730416,-3.15084 5.405448,-6.93896 0.436829,-0.98789 0.621644,-2.06896 0.932466,-3.10344 0,0 -3.174717,-1.72921 -3.174717,-1.72921 v 0 c -0.270717,1.02572 -0.411695,2.0948 -0.812149,3.07716 -1.510414,3.70518 -2.268371,3.90628 -5.105178,6.9128 -1.683181,1.03927 -3.252745,2.29034 -5.049541,3.1178 -11.694139,5.38539 -26.440601,5.30129 -38.645594,1.97982 -3.200734,-0.87104 -6.17161,-2.43409 -9.257417,-3.65114 -7.797733,-6.49106 -11.954719,-8.34591 -16.062616,-18.01202 -5.218301,-12.27896 -2.725514,-25.99378 2.160415,-37.86061 1.765099,-4.28703 4.263313,-8.23414 6.394969,-12.35121 2.700639,-3.39179 5.038659,-7.10712 8.101918,-10.17537 4.991518,-4.99965 10.33645,-8.42795 17.277532,-9.78466 2.519177,-0.4924 5.133546,-0.21852 7.699243,-0.14159 1.221737,0.0366 2.516502,-0.0112 3.635113,0.48146 1.948071,0.85794 3.570393,2.31872 5.355587,3.47807 1.349274,1.41673 2.870623,2.68754 4.047818,4.25019 3.022449,4.01209 4.764588,9.98995 5.296964,14.97272 0,0 3.547276,1.70166 3.547276,1.70166 z" />
    <path
       style="fill:#000000;stroke-width:0.264583"
       id="path267"
       d="m 89.078643,198.88458 c -1.850381,-0.66003 -3.473282,0.49014 -4.762398,1.72269 -1.613366,2.12304 1.625174,2.90561 3.547687,3.75753 0.260836,0.11559 1.634361,-0.46551 1.741001,-0.50567 2.14061,-1.45659 4.06576,-3.19902 6.08597,-4.81573 1.41623,-0.44046 0.90227,-0.22196 -3.18809,-1.84999 -0.12641,-0.0503 -0.0127,0.27223 -0.0318,0.40694 -0.0646,0.45534 -0.20335,0.77551 -0.11165,1.25085 0.0472,0.24442 0.17764,0.46508 0.26646,0.69763 1.40006,0.79483 2.67369,1.87285 4.20017,2.38449 0.63904,0.21418 1.34404,-0.14593 1.99853,-0.30686 1.08169,-0.26596 2.149747,-0.59293 3.197607,-0.97077 2.9347,-1.05822 5.90178,-2.38033 8.57098,-3.9982 1.48653,-0.90102 2.85895,-1.97808 4.28843,-2.96712 1.32283,-1.18524 2.72654,-2.28598 3.96849,-3.55573 4.37074,-4.46859 8.25444,-10.28723 10.74531,-16.02622 0.41601,-0.9585 0.72606,-1.95959 1.08908,-2.93938 0.79346,-3.42229 1.05968,-5.03928 -3.90399,-6.04262 -0.77305,-0.15626 -1.43864,0.66348 -2.09216,1.10499 -2.63387,1.77938 -4.42447,3.72387 -6.76408,5.95224 -1.54187,1.68616 -3.12646,3.33423 -4.6256,5.05849 -2.28225,2.62495 -7.10613,8.58685 -9.2656,11.41098 -1.94759,2.54703 -4.487717,6.01708 -6.145177,8.86663 -0.57502,0.9886 -1.02144,2.0466 -1.53217,3.0699 -0.151,0.63641 -0.50155,1.25696 -0.45302,1.90924 0.12169,1.63546 5.404787,2.63849 5.760887,2.68114 0.81615,0.0977 1.55204,-0.54377 2.3146,-0.8506 1.41483,-0.56929 3.24211,-1.43581 4.63526,-2.08092 2.22701,-1.03601 4.25649,-2.5352 6.71088,-2.95898 0,0 -3.20313,-2.22711 -3.20313,-2.22711 v 0 c -2.39469,0.59507 -4.39153,2.0902 -6.59911,3.13989 -1.43897,0.67512 -3.12346,1.50146 -4.61211,2.0477 -0.76146,0.27941 -2.098667,-0.0569 -2.323617,0.72238 -0.23046,0.7984 1.18388,1.206 1.551927,1.95106 0.16548,0.33499 -0.817977,-0.29138 -0.910847,-0.65329 -0.15973,-0.62253 0.16851,-1.27429 0.25277,-1.91144 0.45833,-1.03757 0.843047,-2.11088 1.374987,-3.1127 1.53798,-2.89655 3.97646,-6.42344 5.87833,-8.9817 4.28232,-5.76028 8.9243,-11.27991 14.04511,-16.31431 2.15752,-1.9016 4.46206,-4.19105 7.01661,-5.65869 0.63142,-0.36276 2.10373,-0.0571 2.03969,-0.78244 -0.0825,-0.93442 -1.33432,-1.51237 -2.25715,-1.6807 -1.17643,-0.21461 3.177,4.72597 -0.0662,3.58693 -0.32659,0.98612 -0.5936,1.994 -0.97976,2.95835 -2.34441,5.85455 -6.12012,11.49708 -10.53955,15.98738 -1.23718,1.25701 -2.63802,2.34172 -3.95703,3.51258 -1.42748,0.97323 -2.79508,2.04068 -4.28243,2.91971 -2.70729,1.60001 -5.70121,2.87443 -8.695987,3.828 -1.07904,0.34357 -2.17951,0.63322 -3.29559,0.8249 -0.65265,0.11208 -2.14573,-0.56042 -1.98493,0.082 0.23642,0.94444 1.61081,1.09395 2.41622,1.64093 -0.11056,-0.1816 -0.26623,-0.34251 -0.33168,-0.54478 -0.071,-0.21947 0.25394,-1.65023 0.21441,-1.68149 -3.14927,-2.48994 -2.39632,-2.91774 -3.71241,-1.9771 -1.88414,1.6875 -3.773349,3.44711 -5.969401,4.71466 -0.309488,0.0896 -0.610243,0.2183 -0.92847,0.26863 -0.228947,0.0362 -0.872755,-0.16092 -0.69528,-0.0118 0.857451,0.72035 1.879335,1.21878 2.832234,1.80709 0.111964,0.0691 -0.255264,-0.12712 -0.307056,-0.24808 -0.127064,-0.29676 0.226816,-0.6657 0.345998,-0.84302 1.244441,-1.20968 2.806395,-2.1356 4.524255,-1.28983 0,0 -3.08641,-2.47859 -3.08641,-2.47859 z" />
    <path
       style="fill:#000000;stroke-width:0.264583"
       id="path418"
       d="m 134.95257,205.03437 c 4.4541,-1.57889 9.18912,-2.13667 13.78928,-3.10358 6.13925,-1.29041 10.18136,-2.3781 16.31746,-3.92541 6.521,-1.5786 12.9528,-3.49821 19.4362,-5.21608 1.14017,-0.30211 2.27808,-0.62301 3.43773,-0.83859 0.57848,-0.10754 2.16752,0.2972 1.76057,-0.12777 -0.80641,-0.84211 -2.14075,-0.92467 -3.21112,-1.387 -2.90394,3.549 -5.95165,6.9627 -8.62229,10.69882 -2.14027,2.99415 -2.78269,4.13009 -4.66473,7.16075 -0.52777,0.92071 -1.07199,1.83219 -1.58331,2.76214 -0.42014,0.76412 -1.29304,2.31197 -1.52807,3.3159 -0.348,1.48652 2.45856,1.94567 3.93028,2.35174 0.2842,0.0784 0.47024,-0.35572 0.70536,-0.53357 0.66851,-0.39735 1.57173,-1.6678 2.36785,-1.74376 0.19994,-0.0191 0.6637,0.16722 0.83501,0.22737 3.35161,1.18448 7.13051,-0.2777 10.37368,-1.19313 4.26851,-1.18036 8.40792,-2.79567 12.72142,-3.8118 0.36641,-0.0693 0.73205,-0.14285 1.09924,-0.20792 0.44871,-0.0795 0.89775,-0.22869 1.35251,-0.1993 0.10845,0.007 0.3935,0.18359 0.29911,0.12971 -3.30165,-1.88456 -3.4012,-3.08288 -3.28177,-1.79318 -0.93629,0.95512 -1.66156,2.08249 -2.37206,3.20945 -0.14177,0.61804 -1.15428,1.73501 -1.18192,2.35412 -0.008,0.18235 0.0352,0.42471 0.19582,0.51141 4.05544,2.18897 2.8788,2.28112 5.34549,1.51763 1.81911,-0.78353 2.67949,-1.9234 3.63843,-3.54455 0.0957,-0.088 0.17242,-0.20274 0.28708,-0.26401 0.85478,-0.45676 3.80842,-0.75874 4.50099,-0.86021 11.58308,-1.69709 -5.63058,0.85632 7.53147,-1.10169 4.32838,-0.45776 8.6312,-1.42999 12.99716,-1.49367 1.50235,-0.0219 3.21928,0.10342 4.7164,0.18898 2.74878,0.15684 5.49147,0.37713 8.22324,0.71962 0,0 -2.91655,-2.16698 -2.91655,-2.16698 v 0 c -2.68667,-0.23726 -5.37881,-0.39644 -8.06933,-0.58341 -1.53946,-0.0836 -3.18796,-0.21016 -4.73264,-0.14832 -2.06304,0.0826 -3.0949,0.32899 -5.18734,0.65449 -3.78744,0.58918 -3.48665,0.53181 -7.484,1.09744 -4.3037,0.53712 -3.72678,0.49977 -7.82571,0.88612 -0.91112,0.0859 -1.82529,0.13944 -2.73525,0.23691 -0.96996,0.1039 -2.01563,0.0973 -2.67468,0.89994 -0.81659,1.62258 -1.53933,2.66262 -3.33266,3.36972 -0.37767,0.078 -1.33647,-0.0937 -1.13302,0.23392 0.53995,0.86947 1.65374,1.20892 2.43767,1.86693 0.11271,0.0946 -0.36062,-0.0259 -0.40961,-0.16463 -0.17514,-0.49611 0.9446,-1.82061 1.03075,-2.32945 0.75454,-1.15496 1.62722,-2.18529 2.59564,-3.16262 1.85529,-3.98964 -4.84701,-2.2501 -5.94324,-1.94244 -4.18107,1.17103 -8.15742,2.96862 -12.36586,4.05994 -3.51428,0.88115 -7.24519,2.00921 -10.78954,0.66925 -0.38535,-0.0614 -0.59215,-0.14239 -0.98197,-0.006 -0.93382,0.32719 -1.45846,1.39843 -2.33172,1.83264 -1.64438,0.91762 -1.08967,0.33765 2.11687,2.4197 0.15012,0.0975 -0.31173,-0.25206 -0.32048,-0.43083 -0.0219,-0.44814 0.098,-0.89804 0.23451,-1.32545 0.50071,-1.56784 1.58826,-3.57883 2.28461,-4.97936 1.80744,-3.16437 2.27123,-4.16733 4.49947,-7.21654 2.79835,-3.82936 6.11297,-7.20468 9.59507,-10.40824 -1.06446,-0.8171 -1.96623,-1.90831 -3.19337,-2.45132 -0.45314,-0.20051 -0.95891,0.25235 -1.43021,0.40538 -1.04256,0.33853 -2.07337,0.71225 -3.1099,1.06884 -6.16449,2.12076 -12.37165,4.11129 -18.69803,5.70524 -2.85919,0.68295 -5.70348,1.43158 -8.57757,2.04885 -2.71269,0.5826 -5.44056,1.09815 -8.17811,1.54974 -4.98655,0.8226 -10.05563,1.18356 -15.00107,2.27158 0,0 3.21076,2.23634 3.21076,2.23634 z" />
    <path
       style="fill:#000000;stroke-width:0.264583"
       id="path476"
       d="m 118.47822,206.86647 c -0.86846,4.45357 -1.66454,8.91813 -2.36542,13.40135 -0.82709,4.62849 -2.07507,9.57338 6.11689,9.08137 1.38798,-0.0834 1.93104,-2.01609 2.72951,-3.15445 1.44212,-2.05601 2.64872,-4.26754 3.97309,-6.40131 1.72795,-3.13905 3.57137,-6.21725 5.18388,-9.41714 6.64485,-13.18623 11.97183,-27.01327 17.68185,-40.61313 6.19935,-14.76535 5.1304,-12.17229 11.36533,-26.20818 3.85457,-7.95989 7.21846,-16.18288 11.39057,-23.99071 0.60181,-1.12625 1.13266,-2.32105 1.96859,-3.28638 0.17544,-0.2026 1.06311,0.0455 0.79891,0.0905 -1.7581,0.29948 -3.53814,0.45164 -5.30721,0.67746 -3.13085,17.12832 -7.5248,34.05425 -7.97179,51.56828 -0.36659,14.364 0.90292,20.12212 2.71134,34.08314 2.28272,10.00293 2.85539,14.80537 6.69595,23.92679 0.97688,2.32012 2.09834,4.61163 3.56417,6.65825 2.4864,3.47156 7.61381,5.55075 11.66944,5.44685 1.54477,-0.0396 2.53437,-1.76875 3.80156,-2.65312 0,0 -4.36531,-2.7982 -4.36531,-2.7982 v 0 c -1.2554,0.77881 -3.02361,1.05929 -3.76621,2.33645 -0.47276,0.81307 1.77243,2.829 0.84177,2.6931 -1.67374,-0.24442 -2.91098,-1.83823 -3.97762,-3.15103 -1.68156,-2.06963 -3.00135,-4.43368 -4.14295,-6.8436 -4.30923,-9.09676 -5.0297,-14.21746 -7.59534,-24.27289 -2.01915,-14.17411 -3.39598,-19.47412 -2.854,-34.07821 0.64091,-17.26962 5.3601,-33.9376 10.12258,-50.41904 -1.43045,-2.15418 -2.65205,-4.46269 -4.29133,-6.46255 -0.16556,-0.20197 -0.42386,0.33219 -0.54341,0.56438 -0.59113,1.14809 -1.06309,2.35393 -1.57057,3.54138 -3.49558,8.17916 -6.76143,16.45566 -10.28753,24.62209 -5.72119,13.60276 -11.24752,27.29689 -17.14633,40.82394 -3.94056,9.03642 -7.50491,17.1296 -12.31631,25.70682 -1.74854,3.11708 -3.78073,6.06635 -5.67109,9.09952 -1.48705,2.00182 -2.83808,4.11225 -4.46115,6.00546 -0.85185,0.99363 -3.05908,1.31246 -2.92907,2.61478 0.15513,1.55388 2.1685,2.29859 3.50087,3.11307 0.4182,0.25565 -0.53094,-0.85642 -0.60254,-1.3413 -0.18473,-1.25102 0.32088,-3.91379 0.4858,-5.02098 0.68894,-4.41278 1.51687,-8.80935 2.77596,-13.09985 0,0 -5.21288,-2.84291 -5.21288,-2.84291 z" />
    <path
       style="fill:#000000;stroke-width:0.264583"
       id="path486"
       d="m 112.39961,198.17188 c -0.36247,0.86404 -1.09653,1.50004 -1.51516,2.32326 -0.0509,0.24124 -0.12587,0.38464 0.0102,0.62602 0.059,0.10461 0.14613,0.20075 0.25197,0.25748 1.24373,0.66671 2.48088,1.35559 3.78095,1.90439 0.10817,0.0457 0.94098,-0.23807 1.01397,-0.2611 0.47205,-0.15933 0.95195,-0.19947 1.44375,-0.14618 0.11413,0.0123 0.22712,0.058 0.3413,0.046 0.22911,-0.0239 0.44941,-0.10136 0.67412,-0.15204 0.3732,-0.16467 0.75845,-0.30437 1.11959,-0.49402 1.59241,-0.83629 2.36323,-1.40395 3.83953,-2.57441 1.43071,-1.1343 3.25884,-2.74166 4.55914,-4.01713 0.7183,-0.70459 1.39285,-1.45244 2.08928,-2.17866 2.41969,-2.69588 4.87956,-5.40584 6.91921,-8.41014 0.0614,-0.15898 0.31643,-0.3694 0.18422,-0.47695 -1.06766,-0.86847 -2.20999,-1.69818 -3.48753,-2.21007 -0.26069,-0.10446 -0.43357,0.35888 -0.62891,0.56067 -1.30098,1.34393 -2.26967,2.94275 -3.27816,4.50461 -1.91862,3.22055 -3.60737,6.62021 -4.68996,10.22128 -0.13743,0.45716 -0.2353,0.92528 -0.35296,1.38792 -0.1209,0.81709 -0.48456,1.79783 -0.12697,2.6209 0.58285,1.34156 4.12266,2.45721 4.31992,2.53165 0.27353,0.10322 0.57068,-0.12737 0.85602,-0.19105 1.20208,-0.36337 2.21265,-1.18041 3.39358,-1.58705 0.56458,-0.19441 0.72989,-0.16133 1.30978,-0.18724 1.82953,0.22909 3.63029,0.74192 5.47671,0.83855 0.44317,0.0232 0.88755,-0.003 1.33132,-0.004 1.37123,-0.15663 2.66314,-0.64494 3.96232,-1.07915 0,0 -2.90018,-1.97388 -2.90018,-1.97388 v 0 c -1.2938,0.3893 -2.57696,0.8578 -3.93535,0.9624 -0.43462,-0.008 -0.87021,0.007 -1.30387,-0.0226 -1.92933,-0.13316 -3.77985,-0.76711 -5.70565,-0.91216 -0.64149,0.0887 -0.74104,0.0602 -1.35123,0.31949 -1.11626,0.47424 -2.08951,1.28422 -3.31268,1.5081 -1.82117,0.12943 -1.16255,-0.0874 1.74096,1.7906 0.16898,0.10931 -0.35208,-0.21565 -0.47047,-0.37839 -0.52432,-0.72078 -0.22281,-1.7892 -0.18688,-2.57546 0.0808,-0.47134 0.13721,-0.9475 0.24227,-1.41402 0.82277,-3.65346 2.43965,-7.09909 4.46345,-10.23166 1.03824,-1.39426 1.46845,-2.10463 2.67776,-3.27534 0.31077,-0.30085 0.64507,-0.58173 1.00765,-0.81757 0.15878,-0.10328 0.67719,-0.0599 0.53663,-0.18691 -3.08062,-2.78295 -2.95156,-3.12789 -2.98213,-1.57738 -1.55284,3.18035 -3.99876,6.02331 -6.254,8.7134 -0.68719,0.72411 -1.34798,1.47421 -2.06155,2.17233 -2.55497,2.49963 -5.44438,4.91147 -8.84572,6.14398 -0.39728,0.14395 -0.81701,0.2161 -1.22552,0.32415 -0.86936,0.018 -1.70891,-0.0785 -2.53905,0.26241 -0.16516,0.0362 -0.32773,0.0874 -0.49547,0.10857 -0.1522,0.0193 -0.58396,-0.0782 -0.46008,0.0123 0.92823,0.67806 1.97952,1.17073 2.94134,1.80023 0.18235,0.11935 -0.97085,-0.26785 -0.50749,-0.37764 0.30354,-0.85209 1.06216,-1.49895 1.53458,-2.25956 0,0 -3.40453,-1.96899 -3.40453,-1.96899 z" />
  </g>
</svg>
