<?xml version="1.0" encoding="UTF-8" standalone="no"?>
<!-- Created with Inkscape (http://www.inkscape.org/) -->

<svg
   width="192.14905mm"
   height="144.15337mm"
   viewBox="0 0 192.14905 144.15337"
   version="1.1"
   id="svg5"
   inkscape:version="1.2 (56b05e47e7, 2022-06-09, custom)"
   sodipodi:docname="signature.svg"
   inkscape:export-filename="/home/simbleau/git/resume/coverletter/static/graphics/signature.png"
   inkscape:export-xdpi="76.229134"
   inkscape:export-ydpi="76.229134"
   xmlns:inkscape="http://www.inkscape.org/namespaces/inkscape"
   xmlns:sodipodi="http://sodipodi.sourceforge.net/DTD/sodipodi-0.dtd"
   xmlns="http://www.w3.org/2000/svg"
   xmlns:svg="http://www.w3.org/2000/svg">
  <sodipodi:namedview
     id="namedview7"
     pagecolor="#ffffff"
     bordercolor="#666666"
     borderopacity="1.0"
     inkscape:pageshadow="2"
     inkscape:pageopacity="0.0"
     inkscape:pagecheckerboard="0"
     inkscape:document-units="mm"
     showgrid="false"
     inkscape:zoom="0.16748036"
     inkscape:cx="208.97973"
     inkscape:cy="686.64769"
     inkscape:window-width="1280"
     inkscape:window-height="683"
     inkscape:window-x="1280"
     inkscape:window-y="720"
     inkscape:window-maximized="1"
     inkscape:current-layer="layer1"
     fit-margin-top="0"
     fit-margin-left="0"
     fit-margin-right="0"
     fit-margin-bottom="0"
     inkscape:showpageshadow="2"
     inkscape:deskcolor="#d1d1d1"
     showguides="true" />
  <defs
     id="defs2" />
  <g
     inkscape:label="Layer 1"
     inkscape:groupmode="layer"
     id="layer1"
     transform="translate(-10.617539,-109.85697)">
    <path
       style="fill:#000000;stroke-width:0.264583"
       id="path358"
       d="m 34.607844,208.81373 c -2.025856,2.96706 -4.168483,5.96223 -5.474692,9.33787 -0.335289,0.86648 -0.555715,1.77314 -0.833572,2.65972 -0.300457,2.22074 -0.697906,3.49825 -0.06301,5.75146 1.148005,4.07419 4.646904,7.16264 8.216648,9.14309 2.651114,1.4708 5.475074,2.60581 8.212609,3.90872 2.224172,0.52679 4.41239,1.23936 6.672517,1.58037 8.854768,1.33601 20.232118,0.42472 28.032556,-4.34342 1.88386,-1.15154 3.440435,-2.76827 5.160655,-4.1524 1.27502,-1.80802 2.83659,-3.44478 3.825063,-5.42405 3.227028,-6.46168 3.372279,-14.39438 0.499544,-21.01039 -2.922955,-6.73166 -6.043668,-8.96087 -11.103613,-14.20193 -8.645845,-6.13274 -9.314743,-7.18136 -19.66778,-11.82726 -5.598724,-2.51241 -13.511022,-4.8253 -19.498261,-6.21814 -6.220257,-1.44705 -9.994518,-1.84223 -16.154867,-2.69459 -3.243667,-0.62297 -6.553025,-0.50325 -9.820045,-0.85282 -0.634335,-0.0679 -2.466786,-0.60976 -1.879661,-0.36022 1.433084,0.60909 2.885981,1.52874 4.441084,1.44889 1.77557,-0.0912 3.316471,-1.28257 4.971438,-1.93222 3.148494,-1.23593 6.292602,-2.483 9.438904,-3.7245 4.414943,-1.82491 8.847429,-3.60796 13.244832,-5.47475 6.072857,-2.57805 24.182813,-10.51926 30.266433,-13.25627 6.222513,-2.79951 17.109212,-7.80161 23.51877,-11.0404 2.57788,-1.30261 5.089744,-2.73197 7.634614,-4.09795 3.69554,-2.01822 7.11432,-4.39784 10.2671,-7.16819 0,0 -3.05325,-1.87841 -3.05325,-1.87841 v 0 c -0.5487,0.58415 -1.05853,1.20741 -1.64609,1.75245 -2.84445,2.63857 -4.29326,3.46771 -7.70708,5.9031 -2.404159,1.45334 -4.760932,2.98812 -7.212466,4.36003 -6.622452,3.70601 -16.153278,8.39718 -22.822974,11.4906 -9.413661,4.36607 -20.876681,9.30801 -30.521759,13.0781 -4.57235,1.78724 -9.216436,3.38523 -13.824654,5.07785 -3.37125,1.08711 -6.730168,2.21322 -10.113748,3.26132 -1.841517,0.57043 -4.280958,0.15089 -5.559622,1.59367 -0.722444,0.81516 0.837935,2.09189 1.644904,2.82348 0.39358,0.35681 1.059245,0.0861 1.589989,0.10922 7.589331,0.33007 -0.04956,-0.1659 9.35562,0.5386 6.174279,0.75365 9.503235,1.01698 15.774078,2.44901 6.847295,1.56368 12.915178,3.46804 19.401441,6.20181 2.540336,1.07068 5.06486,2.21842 7.423192,3.64597 2.89896,1.75481 5.532871,3.91415 8.299307,5.87123 4.980466,5.17398 7.995224,7.31273 10.859466,13.94913 2.825123,6.54577 2.67513,14.33683 -0.527254,20.72002 -0.980144,1.95369 -2.523472,3.56965 -3.785209,5.35447 -1.698786,1.36919 -3.237526,2.96508 -5.096356,4.10757 -7.813217,4.80226 -19.041922,5.66283 -27.901976,4.20445 -2.291419,-0.37717 -4.50314,-1.13717 -6.754707,-1.70576 -0.98075,-0.3022 -2.036932,-0.4233 -2.942246,-0.90662 -3.448408,-1.84101 -6.881213,-4.86004 -8.019979,-8.7474 -0.63913,-2.18177 -0.255049,-3.44925 0.02256,-5.60915 0.271117,-0.87191 0.481441,-1.76511 0.813349,-2.61575 1.29931,-3.32995 3.444632,-6.34332 5.746473,-9.04442 0,0 -3.348276,-2.03519 -3.348275,-2.03519 z" />
    <path
       style="fill:#000000;stroke-width:0.264583"
       id="path360"
       d="m 59.656737,231.48596 c -0.143978,0.3082 -0.284184,0.61819 -0.431937,0.92459 -0.500349,1.0376 -0.590289,1.13907 -1.039411,2.18352 -0.131556,0.30594 -0.235847,0.62325 -0.370356,0.9279 -0.02837,0.0643 -0.184097,0.15539 -0.116768,0.1754 1.251908,0.37193 2.53874,0.61418 3.808111,0.92128 1.882248,-5.95991 4.044262,-11.89857 7.09033,-17.37702 0.603454,-1.08533 1.292805,-2.12062 1.939208,-3.18093 1.590887,-2.14871 3.211655,-4.3475 5.262208,-6.09374 0.361741,-0.30806 0.737936,-0.61243 1.163976,-0.82278 0.17212,-0.085 0.747276,0.0485 0.574757,-0.0357 -1.137356,-0.55483 -2.351368,-0.93634 -3.527052,-1.40452 -0.313441,0.45535 -0.584848,0.94269 -0.940324,1.36603 -2.876629,3.42583 -6.784631,6.25055 -10.419773,8.82638 -0.402775,0.2493 -0.792268,0.52145 -1.208323,0.7479 -1.327234,0.72237 -4.534421,0.51298 3.215405,1.8928 0.439983,0.0783 0.725183,-0.52477 1.110366,-0.75138 1.123503,-0.661 1.926418,-0.97467 3.119221,-1.50285 2.743163,-1.33482 5.191789,-1.03953 8.047442,-0.42432 2.170708,0.57396 3.175669,0.58034 5.022429,-0.7398 1.594178,-1.41343 3.437652,-2.71511 4.627118,-4.51311 0.566068,-1.48029 0.473665,-0.96952 -3.54077,-2.05092 -0.251558,-0.0678 -0.228286,0.46905 -0.322483,0.71195 -0.376854,0.97177 -0.606456,1.93136 -0.748262,2.95982 0.03398,0.29569 0.0264,0.59918 0.101944,0.88708 0.498332,1.89945 3.540569,2.85168 4.712141,3.37437 0.286782,0.12794 1.27702,-0.23206 1.495597,-0.29861 2.167287,-1.10119 4.202912,-2.43131 6.316382,-3.62768 0.502698,-0.26646 1.079307,-0.65466 1.680136,-0.70449 0.189833,-0.0157 0.723649,0.20558 0.56166,0.10535 -4.883184,-3.02125 -3.179003,-2.05218 -2.332738,-0.82973 1.603433,1.23471 1.825479,1.47979 4.974047,2.29335 0.501478,0.12958 1.014792,-0.20941 1.517432,-0.33444 1.5519,-0.38604 3.05838,-0.9002 4.56822,-1.4216 1.4094,-0.61667 2.94766,-0.85624 4.36859,-1.42724 1.95359,-1.10704 3.85437,-2.30706 5.78414,-3.45741 1.84987,-1.03291 2.68001,-0.62745 -2.35231,-2.29805 -0.39054,-0.12964 -0.40299,1.99053 -0.40033,2.15287 0.34668,2.15405 1.7484,3.50761 3.61904,4.50592 5.2754,2.81534 3.43837,2.27553 7.28595,2.96346 3.98534,0.26519 7.40454,-1.73755 10.77567,-3.58187 0,0 -3.04737,-1.98589 -3.04737,-1.98589 v 0 c -3.30117,1.86742 -6.69474,3.75237 -10.62408,3.37786 -0.70711,-0.14811 -1.41421,-0.29622 -2.12132,-0.44433 0.38704,0.33135 1.66545,0.92179 1.1611,0.99404 -0.61832,0.0886 -1.12484,-0.55765 -1.62851,-0.92708 -1.08811,-0.79809 -1.72003,-1.86614 -1.98818,-3.1646 -0.0239,-0.64095 -0.10928,-0.89292 0.11736,-1.47427 0.0678,-0.17379 0.41668,-0.35276 0.28294,-0.48278 -3.00714,-2.9235 -2.33532,-2.88624 -4.28856,-1.70723 -1.89156,1.18969 -3.78736,2.40428 -5.81417,3.35067 -1.4154,0.50083 -2.86704,0.89985 -4.24775,1.49933 -1.48094,0.54034 -2.960853,1.07862 -4.512684,1.38624 -0.507096,0.10052 -1.716511,-0.26477 -1.535288,0.21939 0.397426,1.06177 3.635822,2.34318 1.687481,1.53489 -1.041601,-1.69372 -2.792584,-3.54791 -5.008697,-3.0158 -0.599887,0.14403 -1.138264,0.51074 -1.660872,0.80927 -2.07287,1.22492 -4.109262,2.53402 -6.322533,3.49746 -0.244692,0.0501 -0.484966,0.13217 -0.734074,0.15041 -0.215738,0.0158 -0.815863,-0.18457 -0.647078,-0.0493 0.84083,0.67396 1.813081,1.16568 2.73531,1.72309 0.186008,0.11242 -0.378957,-0.22582 -0.524769,-0.387 -0.460502,-0.50901 -0.420359,-0.76903 -0.559557,-1.42424 0.103778,-0.99794 0.312016,-1.89915 0.726533,-2.82117 0.08551,-0.1902 0.458438,-0.4038 0.305734,-0.54581 -0.945004,-0.87888 -2.1199,-1.47413 -3.213841,-2.15879 -0.04886,-0.0306 0.02336,0.11288 0.03506,0.16932 -1.028518,1.82784 -2.912568,3.09691 -4.499661,4.39948 -1.799658,1.16108 -2.789639,0.99386 -4.81902,0.50922 -2.898314,-0.56061 -5.36017,-0.70657 -8.096271,0.67502 -0.417166,0.18631 -4.51468,2.03531 -4.425026,2.23828 1.747226,3.95565 2.549165,2.68253 4.350766,1.37322 2.065213,-1.61125 4.114561,-3.25069 6.12476,-4.93019 1.309378,-1.09397 3.186975,-2.68966 4.400735,-3.95214 0.416383,-0.4331 0.770271,-0.92221 1.155406,-1.38331 -1.029155,-0.89582 -1.955437,-1.92577 -3.087465,-2.68745 -0.164272,-0.11053 -0.379386,0.13127 -0.54048,0.24639 -0.388972,0.27796 -0.754438,0.59041 -1.097087,0.9238 -1.936607,1.88429 -3.516477,4.1088 -5.06322,6.30903 -0.633188,1.07717 -1.304941,2.13257 -1.899566,3.2315 -2.978494,5.50454 -5.052411,11.42457 -7.554401,17.14601 1.00648,0.94439 1.983054,1.92171 3.019438,2.83319 0.05019,0.0441 -0.04202,-0.13458 -0.02432,-0.19904 0.08653,-0.3153 0.209534,-0.61983 0.332221,-0.9229 0.426241,-1.05293 0.97137,-2.04773 1.555737,-3.01994 0,0 -3.395409,-1.95566 -3.395409,-1.95566 z" />
    <path
       style="fill:#000000;stroke-width:0.264583"
       id="path362"
       d="m 141.79484,164.51995 c -0.98826,-1.1511 -2.16687,-2.03296 -3.49703,-2.77382 -2.96896,-1.65362 -5.9788,-3.60534 -9.44337,-4.07774 -1.35836,-0.18521 -2.74158,-0.0387 -4.11237,-0.0581 -1.49318,0.72604 -3.20623,1.11257 -4.47955,2.1781 -3.94011,3.29715 -7.06946,9.285 -8.74854,13.84894 -2.54588,6.92008 -4.20973,15.84531 -4.22763,23.19223 -0.009,3.87367 0.78805,7.70719 1.18207,11.56078 1.33975,3.14363 2.03514,6.6487 4.01925,9.43091 4.06663,5.7024 11.68387,8.81028 18.32265,9.5359 3.36122,0.36739 6.80685,-0.316 10.07405,-1.18673 8.4074,-2.24063 10.45954,-4.79767 17.10759,-9.85889 1.86884,-2.18235 3.73768,-4.3647 5.60652,-6.54706 0,0 -2.18198,-1.3112 -2.18198,-1.3112 v 0 c -1.80989,2.19772 -3.61979,4.39544 -5.42969,6.59316 -2.52151,1.95183 -4.80394,4.25964 -7.56454,5.85549 -6.56567,3.7955 -11.95247,5.05701 -19.50252,5.0086 -2.42854,-0.0156 -5.01647,-0.0891 -7.19121,-1.17013 -7.95193,-3.95271 -8.02744,-7.83747 -11.44268,-15.44821 -0.42792,-3.8551 -1.29355,-7.68654 -1.28376,-11.56531 0.0187,-7.39994 1.80314,-16.02631 4.60209,-22.89475 1.86916,-4.58679 5.16908,-10.16375 9.29333,-13.29831 1.30683,-0.99323 3.00724,-1.31676 4.51086,-1.97514 8.4444,0.34361 0.002,-0.34474 7.69871,1.25326 0.13683,0.0284 -0.30503,-0.4395 -0.17899,-0.37913 1.24074,0.5942 2.36978,1.48379 3.22223,2.55953 0,0 3.64451,1.5276 3.64451,1.5276 z" />
    <path
       style="fill:#000000;stroke-width:0.264583"
       id="path380"
       d="m 152.90897,193.48442 c -0.51868,0.16877 -1.02781,0.37039 -1.55605,0.50631 -6.36033,1.63643 -12.98494,1.84458 -19.51369,2.01991 -0.95144,0.007 -1.90401,-0.0269 -2.85432,0.02 -0.40413,0.0199 -2.51395,-0.12854 -2.51989,1.06768 -0.006,1.27182 1.9317,4.04019 2.35842,4.72717 0.71794,1.15582 1.45319,2.30079 2.17979,3.45118 2.51556,3.8305 4.54599,7.96958 7.08417,11.78512 1.80757,2.71726 3.56377,5.27245 7.48286,5.50853 1.37135,0.0826 2.35535,-1.41493 3.53303,-2.12239 1.51272,-1.92517 3.16452,-3.74877 4.53817,-5.77551 1.95807,-2.88902 3.74487,-5.89527 5.43966,-8.94619 4.37024,-7.86721 8.00901,-15.65629 11.26498,-24.06173 1.73004,-4.46618 3.26997,-9.0062 4.7305,-13.56764 1.36173,-4.25287 2.48887,-8.57731 3.73331,-12.86597 2.64484,-9.57266 4.2851,-19.36904 5.18608,-29.24857 0.30525,-3.34716 0.50876,-6.87745 0.47221,-10.25934 -0.009,-0.87446 -0.093,-1.74654 -0.13954,-2.6198 -0.0957,-0.41954 0.0501,-0.99118 -0.28699,-1.25861 -1.11721,-0.88625 -2.41634,-1.60728 -3.7933,-1.97821 -0.3313,-0.0892 -0.50236,0.47939 -0.6793,0.77336 -0.2808,0.46651 -0.48402,0.97722 -0.68012,1.48519 -0.62471,1.61816 -1.87749,5.63728 -2.28915,6.92096 -0.56657,2.03656 -1.182,4.06016 -1.69972,6.10969 -0.72342,2.86385 -1.47316,5.72524 -2.02294,8.62744 -1.86649,9.85279 -2.68431,18.23892 -3.74337,28.33536 -1.62517,15.49325 -2.01738,20.71689 -3.38306,36.2664 -0.90562,13.34364 -2.30275,26.64468 -3.62464,39.95095 -0.13346,1.34344 -1.01892,9.47464 -0.99773,11.80979 0.007,0.80746 0.23096,1.59838 0.34644,2.39757 0,0 3.05489,1.46727 3.05489,1.46727 v 0 c -0.27974,-0.85341 -0.70156,-1.67276 -0.83922,-2.56023 -0.48865,-3.15007 -0.29367,-9.81354 -0.23079,-12.42371 0.32659,-13.55502 1.05189,-27.10762 2.36201,-40.6047 0.82942,-9.444 2.24883,-26.77655 3.48528,-36.21213 1.24493,-9.50035 2.8422,-18.29492 5.23528,-27.52224 1.40099,-5.40199 2.82353,-9.12054 4.63412,-14.21217 0.9074,-2.17705 1.78381,-4.43967 2.85876,-6.55253 0.22842,-0.44897 0.46517,-0.89877 0.76693,-1.30211 0.14275,-0.19081 0.70825,-0.27975 0.54942,-0.4574 -0.71857,-0.80372 -1.59413,-1.59478 -2.63506,-1.87542 -0.47073,-0.12691 0.40652,0.88627 0.60979,1.3294 0.16338,0.92183 0.38169,1.83559 0.49015,2.76548 0.41502,3.55836 0.47087,7.06607 0.36038,10.65381 -0.30975,10.0585 -1.7018,20.03281 -4.05459,29.81996 -1.17802,4.32345 -2.18645,8.69673 -3.53406,12.97036 -2.93617,9.31135 -6.17078,17.474 -10.58155,26.17773 -3.28258,6.47749 -7.64433,13.80332 -12.28083,19.51114 -1.55046,1.90872 -3.43739,3.51751 -5.15608,5.27627 -1.20503,0.57559 -2.50779,0.98027 -3.6151,1.72678 -0.17735,0.11957 0.26592,0.78545 0.11826,0.6307 -1.75889,-1.84331 -3.30084,-4.45011 -4.59467,-6.58531 -0.90222,-1.48894 -3.7974,-6.5108 -4.69173,-8.05674 -0.66259,-1.11949 -1.33878,-2.23104 -1.98777,-3.35847 -0.0789,-0.13701 -1.98065,-3.34171 -2.07825,-4.14059 -0.0321,-0.26255 0.12985,-0.58267 0.36443,-0.70488 0.78214,-0.40746 3.86842,-0.43892 4.29725,-0.46136 7.26201,-0.41469 14.58204,-0.73545 21.72574,-2.19127 0,0 -3.1988,-2.16626 -3.1988,-2.16626 z" />
    <path
       style="fill:#000000;stroke-width:0.264583"
       id="path446"
       d="m 169.51899,208.30732 c 1.05244,-1.07129 2.00243,-2.29371 3.24802,-3.15784 0.20051,-0.1391 0.85323,-0.18498 0.65492,-0.32721 -0.98383,-0.70567 -2.18777,-1.0379 -3.28166,-1.55685 0.0288,0.58277 -0.8809,3.16655 -0.52271,3.43073 3.62644,2.67457 2.73203,2.7646 4.9423,1.66595 1.71577,-0.90509 4.09698,-3.47813 6.13323,-3.37036 0.29544,0.0156 0.57008,0.15854 0.85512,0.23781 0.2521,0.14201 1.01229,0.56096 0.75631,0.42605 -0.84779,-0.44681 -1.64319,-1.00345 -2.53197,-1.36188 -0.35752,-0.14418 0.60266,0.48121 0.91352,0.70918 0.33853,0.24826 0.67041,0.50915 1.03399,0.71904 4.58188,2.64495 2.9983,2.11318 6.00407,2.8785 4.05683,0.55334 7.40079,-0.7535 9.94822,-4.04627 0.62572,-0.8088 1.0774,-1.73836 1.61611,-2.60754 0.41945,-1.09181 0.95129,-2.14685 1.25834,-3.27544 1.33701,-4.91426 1.3234,-11.31506 0.59407,-16.34948 -0.12644,-0.87274 -0.37305,-1.7238 -0.55958,-2.5857 -1.22102,-1.99212 -1.81588,-3.65522 -5.61262,-2.72832 -1.15044,0.28086 -1.37001,1.94115 -1.91377,2.99315 -3.23461,6.25785 -5.2237,13.01212 -7.22382,19.72833 -1.35293,5.63867 -2.7037,11.38201 -2.56179,17.2268 0.0156,0.64133 0.21731,4.17855 1.16067,4.96102 1.34073,1.11208 3.03114,1.71732 4.54671,2.57598 0.56625,-0.2574 1.20131,-0.39876 1.69874,-0.77218 3.03309,-2.27697 5.53622,-8.4703 7.29622,-11.90353 1.17493,-1.97999 2.82839,-3.0337 4.79496,-4.07134 0,0 -3.13877,-2.05088 -3.13877,-2.05088 v 0 c -2.09165,1.15697 -3.60777,2.16382 -4.87001,4.29175 -1.63314,3.32719 -4.14019,9.59812 -7.23091,11.62237 -0.45324,0.29685 -1.0297,0.33748 -1.54456,0.50622 0.62227,0.45145 1.18351,1.70664 1.86681,1.35434 0.61017,-0.3146 -0.77081,-1.15947 -0.97139,-1.816 -0.3089,-1.01104 -0.46737,-2.07071 -0.53834,-3.1255 -0.394,-5.85607 0.89198,-11.66035 2.19707,-17.3198 1.94184,-6.43418 2.19667,-8.0352 4.92207,-14.12572 0.80475,-1.79839 1.69035,-3.5653 2.68974,-5.26326 0.56128,-0.9536 1.9541,-1.56001 1.97747,-2.66628 0.0209,-0.98941 -1.23,-1.55121 -1.87246,-2.30394 -0.35509,-0.41603 0.67326,0.86221 1.00989,1.29332 0.2272,0.86406 0.52596,1.7124 0.68159,2.59217 0.8963,5.06655 0.88723,11.22973 -0.5284,16.1915 -0.31404,1.10071 -0.84726,2.12671 -1.2709,3.19006 -0.53538,0.83972 -0.98482,1.74087 -1.60615,2.51914 -2.56541,3.21345 -5.87915,4.3341 -9.84578,3.63494 -2.015,-0.60989 -2.06994,-0.76442 0.61056,0.85794 0.35402,0.21427 -0.69956,-0.44344 -1.03319,-0.68825 -0.30706,-0.2253 -0.56619,-0.51483 -0.88673,-0.7205 -3.65036,-2.34224 -2.77565,-1.9282 -4.93929,-2.83693 -0.31088,-0.0365 -0.62043,-0.13185 -0.93264,-0.10944 -2.26693,0.16271 -4.15173,2.58326 -6.17055,3.43561 -1.78875,0.5499 -1.95336,0.32895 1.79326,2.21018 0.19289,0.0968 -0.16911,-0.41164 -0.16053,-0.62731 0.0397,-0.99611 0.66149,-1.90703 0.76921,-2.89229 -1.20012,-0.73596 -2.30319,-1.6608 -3.60036,-2.20786 -0.23598,-0.0995 -0.44262,0.26054 -0.64507,0.41741 -1.22532,0.94948 -2.25235,2.12762 -3.38147,3.18258 0,0 3.40223,2.01583 3.40223,2.01583 z" />
  </g>
</svg>
