<svg xmlns="http://www.w3.org/2000/svg" viewBox="0.4 0.3 46 34"><path d="M40.1 15.8a9.2 9.2 0 0 0-.4 2.5l-.1 4c-.2 1.1-.8 2.2-2.3 4-1.8 2-4.7 3.6-8 4.2l-2 1c2.6 1 5.3 1 7.5.4 3.7-1.2 3.4-2.1 5-4.7a8.6 8.6 0 0 1 1.8-2c1.8.8 3.5 1.3 4.6 1.2.6-1.3 0-2.9-1-4.4.8-2.5-.4-5-3.1-5.8-.7-.3-1.4-.4-2-.4zm2 3.7a1 1 48.7 0 1 .9.3 1 1 48.7 0 1-.2 1.5 1 1 48.7 0 1-1.4 0 1 1 48.7 0 1 .1-1.5 1 1 48.7 0 1 .7-.3zM25.5 30.6h.2z"/><path d="M26.7.3A6 6 0 0 0 22.4 2c-1.7 1.7-2.2 3.1-1.9 5v.5h-.4c-3.7-.7-8.3-.4-13.6 1.7C8 10 11 11.1 14 12.6l1 .5-1 .2c-4.2.8-9.1 3.3-13.6 8.6 2-.2 6-.7 10.4-.7 2.4 0 4.7.2 6.6.7 2 .5 3.7 1.6 4 2.5s0 1.2-.2 1.9-1 1.6-2 2.3-2.4 1.2-3.7 1.7c-2.7 1-5.6 1.6-6.9 1.7-.2 0-.3.1-.5.3L8 33l.1.8c.1.2.3.2.5.2 8 .6 14-1.4 18.3-3.2 5-2.3 8.2-6.8 8.9-10.8.4-2.6.3-3.8-.1-4.9-.4-1-1.2-2-2.2-3.8-.7-1.2-1-2.3-1.3-3.4v-.2l.2-.1c1.8-1.5 3.3-3.1 3.9-4.3-1.1-1.2-3-1.5-5.3-1.2H31l-.2-.1a5.7 5.7 0 0 0-4-1.8zm.6 2.7c.7 0 1.2.5 1.4 1 .2.8-.3 1.6-1 1.8a1.4 1.4 0 0 1-1.6-1c-.2-.8.2-1.6 1-1.7a1.3 1.3 0 0 1 .2 0z"/><path d="M36.4 6.3a6 6 0 0 0-1.4.1h-.1A25.9 25.9 0 0 1 33 8.1c.2 1 .6 2 1.1 3 1 1.7 1.8 2.6 2.3 3.8s.5 2.7 0 5.3c-.5 3.2-2.4 6.6-5.5 9.2 2.4-.7 4.4-2 5.8-3.6 1.5-1.7 2-2.7 2.2-3.7v-3.8c0-1.2.3-2.2.6-3l.1-.3h.2c2-.3 3.9-.8 4.8-1.4-.3-1.4-1.6-2.4-3.3-3.2l-.1-.1v-.2a4.8 4.8 0 0 0-4.8-3.8zM37.6 9a1.2 1.2 17.7 0 1 .4 0 1.2 1.2 17.7 0 1 .7 1.6 1.2 1.2 17.7 0 1-1.5.8 1.2 1.2 17.7 0 1-.7-1.5 1.2 1.2 17.7 0 1 1.1-.9z"/></svg>