<svg xmlns="http://www.w3.org/2000/svg" xml:space="preserve" fill-rule="evenodd" stroke-linecap="round" stroke-linejoin="round" stroke-miterlimit="1.5" clip-rule="evenodd" viewBox="58.62 6 282.72 388.03"><path fill-rule="nonzero" d="M388.69727 157.95508c-10.14799.21082-20.34972 8.09724-21.56836 20.71289-.51652 5.34582-.31475 12.37688.34179 20.38281.80117 9.75827 2.26083 20.64693 4.42383 31.19531-7.47676 6.11246-14.80034 10.1097-18.63672 10.77735a4.5949998 4.5949998 0 0 0-3.74023 5.31445 4.5949998 4.5949998 0 0 0 5.31445 3.73828c5.85811-1.01948 12.58006-4.62182 19.37695-9.77539 3.43928 13.3195 7.90446 25.21577 14.7461 32.72656a4.5949998 4.5949998 0 0 0 6.49219.30274 4.5949998 4.5949998 0 0 0 .30273-6.49219c-4.78984-5.25832-9.42623-16.3016-12.69727-29.02148-.35549-1.38238-.55215-2.90462-.88086-4.32227 1.95095-1.86597 3.91298-3.68872 5.8086-5.79687 11.02148-12.25724 20.33568-28.60504 20.65039-46.6543.12836-7.36676-2.04133-13.34625-5.83984-17.35352-3.79852-4.00726-9.01976-5.83978-14.09375-5.73437zm.18945 9.1875c2.81425-.0585 5.32671.85663 7.23437 2.86914 1.90767 2.01251 3.41695 5.32536 3.32032 10.87109-.2603 14.92871-8.29018 29.54343-18.29493 40.66992-.37714.41943-.79418.73781-1.17773 1.14649-1.49427-8.34989-2.7097-16.72517-3.33984-24.40039-.63146-7.70006-.76705-14.44788-.35157-18.74805.79136-8.19233 6.98088-12.29127 12.60938-12.4082z" clip-rule="nonzero" color="#000" style="-inkscape-stroke:none" transform="translate(-1104.3890029 -519.69686802) scale(3.32827)"/><path fill-rule="nonzero" d="M304.06836 72.808594a4.5949998 4.5949998 0 0 0-5.01758 4.128906c-1.63171 16.795537-2.46511 34.16264-1.18555 49.1875 1.27956 15.02486 4.361 27.94893 12.50196 35.6543 5.29856 5.01478 12.06076 6.3167 17.47656 4.31836 5.4158-1.99835 9.38806-6.56835 11.55078-11.96485 2.16273-5.39649 2.522-11.86531-.0762-17.87695-1.27146-2.9419-3.28572-5.6878-5.98828-8.07422 4.43839-1.3194 9.17729-3.052 12.56445-6.9707a4.5949998 4.5949998 0 0 0-.4707-6.48047 4.5949998 4.5949998 0 0 0-6.48047.4707c-1.27274 1.47247-6.12249 3.75504-10.50977 4.95313-2.19363.59904-4.26083 1.03322-5.76367 1.32422-.75142.14549-1.35455.25363-1.8125.33984-.22897.0431-.39983.0744-.66015.13477-.13017.0302-.19854.0164-.72266.21875-.13103.0506-.29689.11246-.58399.27148-.14354.0795-.31893.18438-.55468.36328-.23575.1789-.9057.91333-.90625.91406-.00055.00074-.9023 2.42706-.90235 2.42774-.00004.00067.89017 3.05602.89063 3.05664.00045.00061 1.02618 1.0329 1.39062 1.24414.36445.21124.62608.30703.83203.37695a4.5954593 4.5954593 0 0 0 .004.002c6.57767 2.22407 9.72733 5.57819 11.23828 9.07422 1.51095 3.49604 1.32874 7.44826-.0195 10.8125-1.34827 3.36425-3.85461 5.89588-6.20117 6.76172-2.34626.86573-4.63084.7949-7.97656-2.37109-4.97903-4.71262-8.46488-15.68061-9.66407-29.76172-1.19918-14.08111-.42355-31.035148 1.17774-47.517578a4.5949998 4.5949998 0 0 0-4.13086-5.017578z" clip-rule="nonzero" color="#000" style="-inkscape-stroke:none" transform="rotate(-8.3415 -489.31405694 5883.01169769) scale(3.32826)"/></svg>