<svg xmlns="http://www.w3.org/2000/svg" viewBox="0 0 32 32"><path d="M0 16v16h32V0H0zm25.8-1.3a4 4 0 0 1 2 1.2l.8 1-2.3 1.5-.3-.3c-.4-.6-.8-.9-1.5-1-1 0-1.6.5-1.6 1.4 0 .2 0 .4.2.6.2.4.6.7 1.8 1.2 2.3 1 3.3 1.7 4 2.6.6 1 .7 2.7.3 3.9-.5 1.3-1.8 2.2-3.6 2.5h-2.4a5.9 5.9 0 0 1-3.2-1.7l-.9-1.2.3-.2 1.2-.7 1-.6.1.3 1.2 1.2c1 .5 2.5.5 3.1-.2.3-.2.5-.6.5-1 0-.3 0-.5-.3-.7-.2-.4-.7-.7-2.2-1.3a7.9 7.9 0 0 1-3-1.9c-.4-.4-.7-1-.9-1.6v-2c.3-1.6 1.5-2.7 3.3-3a8 8 0 0 1 2.4 0zm-7.5 1.4v1.3H14v11.8h-3V17.4h-4v-2.6h11.2z"/></svg>