<?xml version="1.0" encoding="UTF-8" standalone="no"?>
<!-- Created with Inkscape (http://www.inkscape.org/) -->

<svg
   width="100mm"
   height="100mm"
   viewBox="0 0 100 100"
   version="1.1"
   id="svg5"
   xmlns="http://www.w3.org/2000/svg"
   xmlns:svg="http://www.w3.org/2000/svg">
  <defs
     id="defs2">
    <linearGradient
       id="linearGradient988">
      <stop
         style="stop-color:#000000;stop-opacity:1;"
         offset="0"
         id="stop986" />
    </linearGradient>
  </defs>
  <g
     id="layer1"
     style="display:inline">
    <path
       id="rect846"
       style="display:inline;stroke:#000000;stroke-width:0;stroke-linecap:square"
       d="M 0,0 H 100 V 100 H 0 Z" />
    <path
       id="rect846-3"
       style="fill:#d61420;stroke:#000000;stroke-width:0;stroke-linecap:square"
       d="M 2.0000005,2.0000005 H 98 V 98 H 2.0000005 Z" />
    <g
       aria-label="SCI"
       id="text3252"
       style="font-size:55.4013px;letter-spacing:0px;word-spacing:0px;display:inline;fill:#ffffff;stroke:#f8ed55;stroke-width:6.5;stroke-miterlimit:4;stroke-dasharray:none;stroke-opacity:1">
      <path
         style="color:#000000;-inkscape-font-specification:Legothick;fill:#ffffff;stroke:#f8ed55;stroke-width:6.5;stroke-miterlimit:4;stroke-dasharray:none;stroke-opacity:1"
         d="m 36.869629,45.623285 c 2.179116,-0.554012 3.951961,-1.680507 5.318525,-3.379479 1.255761,-1.625103 1.883644,-3.397948 1.883644,-5.318525 0,-2.179115 -0.794087,-3.95196 -2.382256,-5.318525 -1.809774,-1.588168 -4.376705,-2.382255 -7.70078,-2.382255 h -2.770065 c -4.616771,0 -8.587205,2.012918 -11.911279,6.038741 -3.10247,3.73035 -4.653709,7.774653 -4.653709,12.132885 0,2.917798 0.849488,5.244657 2.548459,6.980563 -2.179115,0.554013 -3.933493,1.662041 -5.263123,3.324078 -1.292696,1.662038 -1.9390456,3.45335 -1.9390456,5.373926 0,2.142181 0.7940866,3.915026 2.3822556,5.318525 1.809774,1.588169 4.376706,2.382256 7.700781,2.382256 h 2.770065 c 4.542901,0 8.494869,-2.012918 11.855878,-6.038742 3.139404,-3.73035 4.70911,-7.756186 4.70911,-12.077483 0,-2.954733 -0.849488,-5.300059 -2.54846,-7.035965 z"
         id="path841" />
      <path
         style="color:#000000;-inkscape-font-specification:Legothick;display:inline;fill:#ffffff;stroke:#f8ed55;stroke-width:6.5;stroke-miterlimit:4;stroke-dasharray:none;stroke-opacity:1"
         d="m 55.151991,56.149532 c 0.07387,-1.255761 0.480145,-3.305614 1.218828,-6.149544 0.775618,-2.84393 1.458902,-4.893783 2.049848,-6.149545 0.110803,1.551235 0.64635,2.733132 1.606638,3.545684 0.960288,0.775617 2.160652,1.163427 3.601085,1.163427 1.883642,0 3.674954,-0.609416 5.373925,-1.828243 1.735906,-1.255761 2.899335,-2.936271 3.490282,-5.041518 0.221605,-0.849486 0.332408,-1.809777 0.332408,-2.880868 0,-2.548457 -0.64635,-4.672177 -1.939045,-6.371149 -1.662038,-2.142181 -4.173568,-3.213275 -7.534577,-3.213275 h -2.770065 c -5.392387,0 -9.750631,2.677735 -13.074706,8.033188 -1.809774,2.954733 -3.471817,7.202175 -4.986117,12.742299 -1.255761,4.764507 -1.883644,8.494868 -1.883644,11.191062 0,6.38961 2.936275,9.584425 8.808806,9.584425 h 2.770065 c 4.136626,0 7.811586,-1.588174 11.024858,-4.764512 2.474589,-2.474589 4.062763,-5.041521 4.764512,-7.700781 0.184671,-0.664815 0.277007,-1.311164 0.277007,-1.939045 0,-1.551235 -0.51708,-2.751599 -1.551237,-3.601084 -1.034156,-0.88642 -2.308389,-1.329632 -3.822689,-1.329632 -3.287141,0 -5.87254,1.569707 -7.756182,4.709111 z"
         id="path847" />
      <path
         d="m 75.816592,36.150159 -7.423774,27.700649 c -0.184671,0.70175 -0.277006,1.385033 -0.277006,2.049848 0,1.514302 0.517079,2.696196 1.551236,3.545683 1.034157,0.849487 2.308387,1.27423 3.82269,1.27423 1.883644,0 3.638018,-0.57248 5.263123,-1.71744 1.772841,-1.292697 2.936269,-3.010138 3.490282,-5.152321 l 7.423774,-27.700649 c 0.221605,-0.70175 0.332408,-1.385033 0.332408,-2.049848 0,-1.514302 -0.517079,-2.696196 -1.551237,-3.545683 -1.034157,-0.849487 -2.308387,-1.27423 -3.822689,-1.27423 -1.883645,0 -3.638019,0.57248 -5.263124,1.71744 -1.772841,1.292697 -2.954736,3.010138 -3.545683,5.152321 z"
         style="font-family:Legothick;-inkscape-font-specification:Legothick;stroke:#f8ed55;stroke-width:6.5;stroke-miterlimit:4;stroke-dasharray:none;stroke-opacity:1"
         id="path4274" />
    </g>
    <g
       aria-label="SCI"
       id="text3252-5"
       style="font-size:55.4013px;letter-spacing:0px;word-spacing:0px;display:inline;fill:#ffffff;stroke:#000000;stroke-width:1;stroke-miterlimit:4;stroke-dasharray:none;stroke-opacity:1"
       transform="translate(6e-7,4.99e-4)">
      <path
         style="color:#000000;-inkscape-font-specification:Legothick;fill:#ffffff;stroke:#000000;stroke-width:1;stroke-miterlimit:4;stroke-dasharray:none;stroke-opacity:1"
         d="m 36.869629,45.623285 c 2.179116,-0.554012 3.951961,-1.680507 5.318525,-3.379479 1.255761,-1.625103 1.883644,-3.397948 1.883644,-5.318525 0,-2.179115 -0.794087,-3.95196 -2.382256,-5.318525 -1.809774,-1.588168 -4.376705,-2.382255 -7.70078,-2.382255 h -2.770065 c -4.616771,0 -8.587205,2.012918 -11.911279,6.038741 -3.10247,3.73035 -4.653709,7.774653 -4.653709,12.132885 0,2.917798 0.849488,5.244657 2.548459,6.980563 -2.179115,0.554013 -3.933493,1.662041 -5.263123,3.324078 -1.292696,1.662038 -1.9390456,3.45335 -1.9390456,5.373926 0,2.142181 0.7940866,3.915026 2.3822556,5.318525 1.809774,1.588169 4.376706,2.382256 7.700781,2.382256 h 2.770065 c 4.542901,0 8.494869,-2.012918 11.855878,-6.038742 3.139404,-3.73035 4.70911,-7.756186 4.70911,-12.077483 0,-2.954733 -0.849488,-5.300059 -2.54846,-7.035965 z"
         id="path841-6" />
      <path
         style="color:#000000;-inkscape-font-specification:Legothick;display:inline;fill:#ffffff;stroke:#000000;stroke-width:1;stroke-miterlimit:4;stroke-dasharray:none;stroke-opacity:1"
         d="m 55.151991,56.149532 c 0.07387,-1.255761 0.480145,-3.305614 1.218828,-6.149544 0.775618,-2.84393 1.458902,-4.893783 2.049848,-6.149545 0.110803,1.551235 0.64635,2.733132 1.606638,3.545684 0.960288,0.775617 2.160652,1.163427 3.601085,1.163427 1.883642,0 3.674954,-0.609416 5.373925,-1.828243 1.735906,-1.255761 2.899335,-2.936271 3.490282,-5.041518 0.221605,-0.849486 0.332408,-1.809777 0.332408,-2.880868 0,-2.548457 -0.64635,-4.672177 -1.939045,-6.371149 -1.662038,-2.142181 -4.173568,-3.213275 -7.534577,-3.213275 h -2.770065 c -5.392387,0 -9.750631,2.677735 -13.074706,8.033188 -1.809774,2.954733 -3.471817,7.202175 -4.986117,12.742299 -1.255761,4.764507 -1.883644,8.494868 -1.883644,11.191062 0,6.38961 2.936275,9.584425 8.808806,9.584425 h 2.770065 c 4.136626,0 7.811586,-1.588174 11.024858,-4.764512 2.474589,-2.474589 4.062763,-5.041521 4.764512,-7.700781 0.184671,-0.664815 0.277007,-1.311164 0.277007,-1.939045 0,-1.551235 -0.51708,-2.751599 -1.551237,-3.601084 -1.034156,-0.88642 -2.308389,-1.329632 -3.822689,-1.329632 -3.287141,0 -5.87254,1.569707 -7.756182,4.709111 z"
         id="path847-9" />
      <path
         d="m 75.816592,36.150159 -7.423774,27.700649 c -0.184671,0.70175 -0.277006,1.385033 -0.277006,2.049848 0,1.514302 0.517079,2.696196 1.551236,3.545683 1.034157,0.849487 2.308387,1.27423 3.82269,1.27423 1.883644,0 3.638018,-0.57248 5.263123,-1.71744 1.772841,-1.292697 2.936269,-3.010138 3.490282,-5.152321 l 7.423774,-27.700649 c 0.221605,-0.70175 0.332408,-1.385033 0.332408,-2.049848 0,-1.514302 -0.517079,-2.696196 -1.551237,-3.545683 -1.034157,-0.849487 -2.308387,-1.27423 -3.822689,-1.27423 -1.883645,0 -3.638019,0.57248 -5.263124,1.71744 -1.772841,1.292697 -2.954736,3.010138 -3.545683,5.152321 z"
         style="font-family:Legothick;-inkscape-font-specification:Legothick;stroke:#000000;stroke-width:1;stroke-miterlimit:4;stroke-dasharray:none;stroke-opacity:1"
         id="path4274-8" />
    </g>
    <g
       aria-label="SCI"
       id="text3252-1-6"
       style="font-size:55.4013px;line-height:1.25;letter-spacing:0px;word-spacing:0px;display:inline;stroke-width:0">
      <path
         d="m 23.573319,68.005906 h -2.770065 q -3.988894,0 -6.094143,-1.717441 -1.828243,-1.551236 -1.828243,-3.822689 0,-2.160651 1.495835,-3.82269 1.551236,-1.71744 3.878091,-1.71744 1.883644,0 2.54846,1.385032 0.664815,1.385033 2.382255,1.385033 1.883645,0 2.659263,-0.387809 1.108026,-0.554013 1.939045,-2.382256 0.166204,-1.883644 -0.775618,-2.437657 -0.554013,-0.332408 -2.603861,-0.332408 -3.43488,-0.0554 -5.207722,-2.216052 -1.662039,-1.994447 -1.662039,-5.207722 0,-5.263123 3.601084,-9.80603 3.878091,-4.930716 9.36282,-4.930716 h 2.770065 q 3.988893,0 6.094143,1.717441 1.828242,1.495835 1.828242,3.822689 0,2.160651 -1.551236,3.878091 -1.495835,1.662039 -3.822689,1.662039 -1.828243,0 -2.603862,-1.385032 -0.720216,-1.385033 -2.493058,-1.385033 -1.71744,0 -2.493058,0.387809 -1.108026,0.554013 -1.939046,2.382256 -0.166204,1.883644 0.775618,2.437657 0.554013,0.332408 2.603861,0.332408 3.434881,0.0554 5.152321,2.160651 1.71744,2.049848 1.71744,5.263123 0,5.263123 -3.601084,9.80603 -3.878091,4.930716 -9.362819,4.930716 z M 36.86963,45.623781 q 3.268677,-0.83102 5.318525,-3.379479 1.883644,-2.437657 1.883644,-5.318525 0,-3.268677 -2.382256,-5.318525 -2.714663,-2.382255 -7.70078,-2.382255 h -2.770065 q -6.925163,0 -11.911279,6.038741 -4.65371,5.595531 -4.65371,12.132884 0,4.376703 2.54846,6.980564 -3.268676,0.83102 -5.263123,3.324078 Q 10,60.194322 10,63.07519 q 0,3.213275 2.382256,5.318525 2.714664,2.382255 7.700781,2.382255 h 2.770065 q 6.814359,0 11.855878,-6.038741 4.70911,-5.595531 4.70911,-12.077483 0,-4.432104 -2.54846,-7.035965 z"
         style="font-family:Legothick;-inkscape-font-specification:Legothick"
         id="path1090" />
      <path
         d="m 52.93594,68.005906 h -2.770065 q -6.648156,0 -6.648156,-7.479176 0,-3.822689 1.772842,-10.526246 2.326854,-8.5318 5.15232,-12.631497 3.711887,-5.373926 9.418221,-5.373926 h 2.770065 q 7.312971,0 7.312971,7.589978 0,1.27423 -0.221605,2.10525 -0.554013,1.939045 -2.105249,3.047071 -1.495835,1.052625 -3.157874,1.052625 -3.213275,0 -3.213275,-2.880868 0,-0.332407 0.110802,-0.831019 0.110803,-0.554013 0.110803,-0.775618 0,-0.886421 -2.049848,-0.997224 -1.828243,0.110803 -2.880868,1.717441 -1.329631,2.049848 -2.936269,7.977787 -1.329631,5.15232 -1.329631,7.25757 0,2.271453 1.939046,2.437657 2.382256,-0.110803 2.714663,-1.385033 0.554013,-1.939045 2.160651,-3.102472 1.440434,-0.997224 3.102473,-0.997224 3.213275,0 3.213275,2.880868 0,0.554013 -0.166204,1.218828 -0.664815,2.54846 -3.157874,5.373926 -3.822689,4.321302 -9.141214,4.321302 z m 2.216052,-11.855878 q 0.110802,-1.883645 1.218828,-6.149544 1.163428,-4.2659 2.049848,-6.149545 0.166204,2.326855 1.606638,3.545683 1.440434,1.163428 3.601084,1.163428 2.825467,0 5.373926,-1.828243 2.603861,-1.883644 3.490282,-5.041518 0.332408,-1.27423 0.332408,-2.880868 0,-3.822689 -1.939045,-6.371149 -2.493059,-3.213275 -7.534577,-3.213275 h -2.770065 q -8.08859,0 -13.074706,8.033188 -2.714664,4.432104 -4.986117,12.742299 -1.883644,7.146767 -1.883644,11.191062 0,9.584424 8.808806,9.584424 h 2.770065 q 6.204945,0 11.024858,-4.764511 3.711887,-3.711887 4.764512,-7.700781 0.277007,-0.997223 0.277007,-1.939045 0,-2.326855 -1.551237,-3.601085 -1.551236,-1.329631 -3.822689,-1.329631 -4.930716,0 -7.756182,4.709111 z"
         style="font-family:Legothick;-inkscape-font-specification:Legothick"
         id="path1092" />
      <path
         d="m 79.473078,63.850808 q -0.498612,1.939046 -2.049848,3.047072 -1.495835,1.052624 -3.157874,1.052624 -3.268677,0 -3.268677,-2.880867 0,-0.554013 0.166204,-1.218829 l 7.423774,-27.700649 q 0.554013,-1.939046 2.160651,-3.102473 1.440433,-0.997223 3.102472,-0.997223 3.268677,0 3.268677,2.880867 0,0.554013 -0.221605,1.218829 z M 75.816592,36.150159 68.392818,63.850808 q -0.277006,1.052625 -0.277006,2.049848 0,2.271453 1.551236,3.545683 1.551236,1.27423 3.82269,1.27423 2.825466,0 5.263123,-1.71744 2.659262,-1.939046 3.490282,-5.152321 l 7.423774,-27.700649 q 0.332408,-1.052625 0.332408,-2.049848 0,-2.271453 -1.551237,-3.545683 -1.551236,-1.27423 -3.822689,-1.27423 -2.825467,0 -5.263124,1.71744 -2.659262,1.939046 -3.545683,5.152321 z"
         style="font-family:Legothick;-inkscape-font-specification:Legothick"
         id="path1094" />
    </g>
  </g>
</svg>
